<svg xmlns="http://www.w3.org/2000/svg" width="688" height="20" viewBox="0 0 688 20" role="img" aria-label="tools"><title>tools</title><g transform="translate(0,0)"><rect width="49" height="20" rx="3" fill="#F05032"/><g transform="translate(7,3.0) scale(0.5833)"><path d="M13.09 23.549a1.54 1.54 0 0 1-2.18 0L.451 13.089a1.54 1.54 0 0 1 0-2.179l7.191-7.19 2.733 2.733a1.85 1.85 0 0 0 .964 2.326v6.66a1.849 1.849 0 1 0 1.54 0V8.957l2.508 2.508a1.85 1.85 0 1 0 1.09-1.09l-2.634-2.634a1.85 1.85 0 0 0-2.378-2.377L8.73 2.63 10.91.451a1.54 1.54 0 0 1 2.179 0l10.459 10.46a1.54 1.54 0 0 1 0 2.179z" fill="#ffffff"/></g><text x="25" y="15" fill="#010101" fill-opacity=".3" font-family="Verdana,DejaVu Sans,Geneva,sans-serif" font-size="11">Git</text><text x="25" y="14" fill="#ffffff" font-family="Verdana,DejaVu Sans,Geneva,sans-serif" font-size="11">Git</text></g><g transform="translate(54,0)"><rect width="63" height="20" rx="3" fill="#FCC624"/><g transform="translate(7,3.0) scale(0.5833)"><path d="M12.504 0c-.155 0-.315.008-.48.021-4.226.333-3.105 4.807-3.17 6.298-.076 1.092-.3 1.953-1.05 3.02-.885 1.051-2.127 2.75-2.716 4.521-.278.832-.41 1.684-.287 2.489a.424.424 0 00-.11.135c-.26.268-.45.6-.663.839-.199.199-.485.267-.797.4-.313.136-.658.269-.864.68-.09.189-.136.394-.132.602 0 .199.027.4.055.536.058.399.116.728.04.97-.249.68-.28 1.145-.106 1.484.174.334.535.47.94.601.81.2 1.91.135 2.774.6.926.466 1.866.67 2.616.47.526-.116.97-.464 1.208-.946.587-.003 1.23-.269 2.26-.334.699-.058 1.574.267 2.577.2.025.134.063.198.114.333l.003.003c.391.778 1.113 1.132 1.884 1.071.771-.06 1.592-.536 2.257-1.306.631-.765 1.683-1.084 2.378-1.503.348-.199.629-.469.649-.853.023-.4-.2-.811-.714-1.376v-.097l-.003-.003c-.17-.2-.25-.535-.338-.926-.085-.401-.182-.786-.492-1.046h-.003c-.059-.054-.123-.067-.188-.135a.357.357 0 00-.19-.064c.431-1.278.264-2.55-.173-3.694-.533-1.41-1.465-2.638-2.175-3.483-.796-1.005-1.576-1.957-1.56-3.368.026-2.152.236-6.133-3.544-6.139zm.529 3.405h.013c.213 0 .396.062.584.198.19.135.33.332.438.533.105.259.158.459.166.724 0-.02.006-.04.006-.06v.105a.086.086 0 01-.004-.021l-.004-.024a1.807 1.807 0 01-.15.706.953.953 0 01-.213.335.71.71 0 00-.088-.042c-.104-.045-.198-.064-.284-.133a1.312 1.312 0 00-.22-.066c.05-.06.146-.133.183-.198.053-.128.082-.264.088-.402v-.02a1.21 1.21 0 00-.061-.4c-.045-.134-.101-.2-.183-.333-.084-.066-.167-.132-.267-.132h-.016c-.093 0-.176.03-.262.132a.8.8 0 00-.205.334 1.18 1.18 0 00-.09.4v.019c.002.089.008.179.02.267-.193-.067-.438-.135-.607-.202a1.635 1.635 0 01-.018-.2v-.02a1.772 1.772 0 01.15-.768c.082-.22.232-.406.43-.533a.985.985 0 01.594-.2zm-2.962.059h.036c.142 0 .27.048.399.135.146.129.264.288.344.465.09.199.14.4.153.667v.004c.007.134.006.2-.002.266v.08c-.03.007-.056.018-.083.024-.152.055-.274.135-.393.2.012-.09.013-.18.003-.267v-.015c-.012-.133-.04-.2-.082-.333a.613.613 0 00-.166-.267.248.248 0 00-.183-.064h-.021c-.071.006-.13.04-.186.132a.552.552 0 00-.12.27.944.944 0 00-.023.33v.015c.012.135.037.2.08.334.046.134.098.2.166.268.01.009.02.018.034.024-.07.057-.117.07-.176.136a.304.304 0 01-.131.068 2.62 2.62 0 01-.275-.402 1.772 1.772 0 01-.155-.667 1.759 1.759 0 01.08-.668 1.43 1.43 0 01.283-.535c.128-.133.26-.2.418-.2zm1.37 1.706c.332 0 .733.065 1.216.399.293.2.523.269 1.052.468h.003c.255.136.405.266.478.399v-.131a.571.571 0 01.016.47c-.123.31-.516.643-1.063.842v.002c-.268.135-.501.333-.775.465-.276.135-.588.292-1.012.267a1.139 1.139 0 01-.448-.067 3.566 3.566 0 01-.322-.198c-.195-.135-.363-.332-.612-.465v-.005h-.005c-.4-.246-.616-.512-.686-.71-.07-.268-.005-.47.193-.6.224-.135.38-.271.483-.336.104-.074.143-.102.176-.131h.002v-.003c.169-.202.436-.47.839-.601.139-.036.294-.065.466-.065zm2.8 2.142c.358 1.417 1.196 3.475 1.735 4.473.286.534.855 1.659 1.102 3.024.156-.005.33.018.513.064.646-1.671-.546-3.467-1.089-3.966-.22-.2-.232-.335-.123-.335.59.534 1.365 1.572 1.646 2.757.13.535.16 1.104.021 1.67.067.028.135.06.205.067 1.032.534 1.413.938 1.23 1.537v-.043c-.06-.003-.12 0-.18 0h-.016c.151-.467-.182-.825-1.065-1.224-.915-.4-1.646-.336-1.77.465-.008.043-.013.066-.018.135-.068.023-.139.053-.209.064-.43.268-.662.669-.793 1.187-.13.533-.17 1.156-.205 1.869v.003c-.02.334-.17.838-.319 1.35-1.5 1.072-3.58 1.538-5.348.334a2.645 2.645 0 00-.402-.533 1.45 1.45 0 00-.275-.333c.182 0 .338-.03.465-.067a.615.615 0 00.314-.334c.108-.267 0-.697-.345-1.163-.345-.467-.931-.995-1.788-1.521-.63-.4-.986-.87-1.15-1.396-.165-.534-.143-1.085-.015-1.645.245-1.07.873-2.11 1.274-2.763.107-.065.037.135-.408.974-.396.751-1.14 2.497-.122 3.854a8.123 8.123 0 01.647-2.876c.564-1.278 1.743-3.504 1.836-5.268.048.036.217.135.289.202.218.133.38.333.59.465.21.201.477.335.876.335.039.003.075.006.11.006.412 0 .73-.134.997-.268.29-.134.52-.334.74-.4h.005c.467-.135.835-.402 1.044-.7zm2.185 8.958c.037.6.343 1.245.882 1.377.588.134 1.434-.333 1.791-.765l.211-.01c.315-.007.577.01.847.268l.003.003c.208.199.305.53.391.876.085.4.154.78.409 1.066.486.527.645.906.636 1.14l.003-.007v.018l-.003-.012c-.015.262-.185.396-.498.595-.63.401-1.746.712-2.457 1.57-.618.737-1.37 1.14-2.036 1.191-.664.053-1.237-.2-1.574-.898l-.005-.003c-.21-.4-.12-1.025.056-1.69.176-.668.428-1.344.463-1.897.037-.714.076-1.335.195-1.814.12-.465.308-.797.641-.984l.045-.022zm-10.814.049h.01c.053 0 .105.005.157.014.376.055.706.333 1.023.752l.91 1.664.003.003c.243.533.754 1.064 1.189 1.637.434.598.77 1.131.729 1.57v.006c-.057.744-.48 1.148-1.125 1.294-.645.135-1.52.002-2.395-.464-.968-.536-2.118-.469-2.857-.602-.369-.066-.61-.2-.723-.4-.11-.2-.113-.602.123-1.23v-.004l.002-.003c.117-.334.03-.752-.027-1.118-.055-.401-.083-.71.043-.94.16-.334.396-.4.69-.533.294-.135.64-.202.915-.47h.002v-.002c.256-.268.445-.601.668-.838.19-.201.38-.336.663-.336zm7.159-9.074c-.435.201-.945.535-1.488.535-.542 0-.97-.267-1.28-.466-.154-.134-.28-.268-.373-.335-.164-.134-.144-.333-.074-.333.109.016.129.134.199.2.096.066.215.2.36.333.292.2.68.467 1.167.467.485 0 1.053-.267 1.398-.466.195-.135.445-.334.648-.467.156-.136.149-.267.279-.267.128.016.034.134-.147.332a8.097 8.097 0 01-.69.468zm-1.082-1.583V5.64c-.006-.02.013-.042.029-.05.074-.043.18-.027.26.004.063 0 .16.067.15.135-.006.049-.085.066-.135.066-.055 0-.092-.043-.141-.068-.052-.018-.146-.008-.163-.065zm-.551 0c-.02.058-.113.049-.166.066-.047.025-.086.068-.14.068-.05 0-.13-.02-.136-.068-.01-.066.088-.133.15-.133.08-.031.184-.047.259-.005.019.009.036.03.03.05v.02h.003z" fill="#000000"/></g><text x="25" y="15" fill="#010101" fill-opacity=".3" font-family="Verdana,DejaVu Sans,Geneva,sans-serif" font-size="11">Linux</text><text x="25" y="14" fill="#000000" font-family="Verdana,DejaVu Sans,Geneva,sans-serif" font-size="11">Linux</text></g><g transform="translate(122,0)"><rect width="108" height="20" rx="3" fill="#0078D6"/><text x="7" y="15" fill="#010101" fill-opacity=".3" font-family="Verdana,DejaVu Sans,Geneva,sans-serif" font-size="11">Windows Server</text><text x="7" y="14" fill="#ffffff" font-family="Verdana,DejaVu Sans,Geneva,sans-serif" font-size="11">Windows Server</text></g><g transform="translate(235,0)"><rect width="73" height="20" rx="3" fill="#2496ED"/><g transform="translate(7,3.0) scale(0.5833)"><path d="M13.983 11.078h2.119a.186.186 0 00.186-.185V9.006a.186.186 0 00-.186-.186h-2.119a.185.185 0 00-.185.185v1.888c0 .102.083.185.185.185m-2.954-5.43h2.118a.186.186 0 00.186-.186V3.574a.186.186 0 00-.186-.185h-2.118a.185.185 0 00-.185.185v1.888c0 .102.082.185.185.185m0 2.716h2.118a.187.187 0 00.186-.186V6.29a.186.186 0 00-.186-.185h-2.118a.185.185 0 00-.185.185v1.887c0 .102.082.185.185.186m-2.93 0h2.12a.186.186 0 00.184-.186V6.29a.185.185 0 00-.185-.185H8.1a.185.185 0 00-.185.185v1.887c0 .102.083.185.185.186m-2.964 0h2.119a.186.186 0 00.185-.186V6.29a.185.185 0 00-.185-.185H5.136a.186.186 0 00-.186.185v1.887c0 .102.084.185.186.186m5.893 2.715h2.118a.186.186 0 00.186-.185V9.006a.186.186 0 00-.186-.186h-2.118a.185.185 0 00-.185.185v1.888c0 .102.082.185.185.185m-2.93 0h2.12a.185.185 0 00.184-.185V9.006a.185.185 0 00-.184-.186h-2.12a.185.185 0 00-.184.185v1.888c0 .102.083.185.185.185m-2.964 0h2.119a.185.185 0 00.185-.185V9.006a.185.185 0 00-.184-.186h-2.12a.186.186 0 00-.186.186v1.887c0 .102.084.185.186.185m-2.92 0h2.12a.185.185 0 00.184-.185V9.006a.185.185 0 00-.184-.186h-2.12a.185.185 0 00-.184.185v1.888c0 .102.082.185.185.185M23.763 9.89c-.065-.051-.672-.51-1.954-.51-.338.001-.676.03-1.01.087-.248-1.7-1.653-2.53-1.716-2.566l-.344-.199-.226.327c-.284.438-.49.922-.612 1.43-.23.97-.09 1.882.403 2.661-.595.332-1.55.413-1.744.42H.751a.751.751 0 00-.75.748 11.376 11.376 0 00.692 4.062c.545 1.428 1.355 2.48 2.41 3.124 1.18.723 3.1 1.137 5.275 1.137.983.003 1.963-.086 2.93-.266a12.248 12.248 0 003.823-1.389c.98-.567 1.86-1.288 2.61-2.136 1.252-1.418 1.998-2.997 2.553-4.4h.221c1.372 0 2.215-.549 2.68-1.009.309-.293.55-.65.707-1.046l.098-.288Z" fill="#ffffff"/></g><text x="25" y="15" fill="#010101" fill-opacity=".3" font-family="Verdana,DejaVu Sans,Geneva,sans-serif" font-size="11">Docker</text><text x="25" y="14" fill="#ffffff" font-family="Verdana,DejaVu Sans,Geneva,sans-serif" font-size="11">Docker</text></g><g transform="translate(313,0)"><rect width="82" height="20" rx="3" fill="#E57000"/><g transform="translate(7,3.0) scale(0.5833)"><path d="M4.928 1.825c-1.09.553-1.09.64-.07 1.78 5.655 6.295 7.004 7.782 7.107 7.782.139.017 7.971-8.542 8.058-8.801.034-.07-.208-.312-.519-.536-.415-.312-.864-.433-1.712-.467-1.59-.104-2.144.242-4.115 2.455-.899 1.003-1.66 1.833-1.66 1.833-.017 0-.76-.813-1.642-1.798S8.473 2.1 8.127 1.91c-.796-.45-2.421-.484-3.2-.086zM1.297 4.367C.45 4.695 0 5.007 0 5.248c0 .121 1.331 1.678 2.94 3.459 1.625 1.78 2.939 3.268 2.939 3.302 0 .035-1.331 1.522-2.94 3.303C1.314 17.11.017 18.683.035 18.822c.086.467 1.504 1.055 2.541 1.055 1.678-.018 2.058-.312 5.603-4.202 1.78-1.954 3.233-3.614 3.233-3.666 0-.069-1.435-1.694-3.199-3.63-2.3-2.508-3.423-3.632-3.96-3.874-.812-.398-2.126-.467-2.956-.138zm18.467.12c-.502.26-1.764 1.505-3.943 3.891-1.763 1.937-3.199 3.562-3.199 3.631 0 .07 1.453 1.712 3.234 3.666 3.544 3.89 3.925 4.184 5.602 4.202 1.038 0 2.455-.588 2.542-1.055.017-.156-1.28-1.712-2.905-3.493-1.608-1.78-2.94-3.285-2.94-3.32 0-.034 1.332-1.539 2.94-3.32C22.72 6.91 24.017 5.352 24 5.214c-.087-.45-1.366-.968-2.473-1.038-.795-.034-1.21.035-1.763.312zM7.954 16.973c-2.144 2.369-3.908 4.374-3.943 4.46-.034.07.208.312.52.537.414.311.864.432 1.711.467 1.574.103 2.161-.26 4.15-2.508.864-.968 1.608-1.78 1.625-1.78s.761.812 1.643 1.798c2.023 2.248 2.559 2.576 4.132 2.49.848-.035 1.297-.156 1.712-.467.311-.225.553-.467.519-.536-.087-.26-7.92-8.819-8.058-8.801-.069 0-1.867 1.954-4.011 4.34z" fill="#ffffff"/></g><text x="25" y="15" fill="#010101" fill-opacity=".3" font-family="Verdana,DejaVu Sans,Geneva,sans-serif" font-size="11">Proxmox</text><text x="25" y="14" fill="#ffffff" font-family="Verdana,DejaVu Sans,Geneva,sans-serif" font-size="11">Proxmox</text></g><g transform="translate(400,0)"><rect width="66" height="20" rx="3" fill="#F69220"/><g transform="translate(7,3.0) scale(0.5833)"><path d="M0 0v7.5h7.5V0zm8.25 0v7.5h7.498V0zm8.25 0v7.5H24V0zM2 2h3.5v3.5H2zm8.25 0h3.498v3.5H10.25zm8.25 0H22v3.5h-3.5zM8.25 8.25v7.5h7.498v-7.5zm8.25 0v7.5H24v-7.5zm2 2H22v3.5h-3.5zM0 16.5V24h7.5v-7.5zm8.25 0V24h7.498v-7.5zm8.25 0V24H24v-7.5z" fill="#ffffff"/></g><text x="25" y="15" fill="#010101" fill-opacity=".3" font-family="Verdana,DejaVu Sans,Geneva,sans-serif" font-size="11">pnpm</text><text x="25" y="14" fill="#ffffff" font-family="Verdana,DejaVu Sans,Geneva,sans-serif" font-size="11">pnpm</text></g><g transform="translate(471,0)"><rect width="65" height="20" rx="3" fill="#6E9F18"/><g transform="translate(7,3.0) scale(0.5833)"><path d="M11.545 23.3a.613.613 0 0 1-.895.197L.252 15.936A.61.61 0 0 1 0 15.439V6.325c0-.502.569-.792.975-.497l6.358 4.624c.594.433 1.432.25 1.793-.39L14.393.7a.62.62 0 0 1 .535-.314h8.455a.613.613 0 0 1 .537.916z" fill="#ffffff"/></g><text x="25" y="15" fill="#010101" fill-opacity=".3" font-family="Verdana,DejaVu Sans,Geneva,sans-serif" font-size="11">Vitest</text><text x="25" y="14" fill="#ffffff" font-family="Verdana,DejaVu Sans,Geneva,sans-serif" font-size="11">Vitest</text></g><g transform="translate(541,0)"><rect width="69" height="20" rx="3" fill="#0A9EDC"/><g transform="translate(7,3.0) scale(0.5833)"><path d="M2.6152 0v.8867h3.8399V0zm5.0215 0v.8867h3.8418V0zm4.957 0v.8867h3.8418V0zm4.9356 0v.8867h3.8418V0zM2.4473 1.8945a.935.935 0 0 0-.9356.9356c0 .517.4185.9375.9356.9375h19.1054c.5171 0 .9356-.4204.9356-.9375a.935.935 0 0 0-.9356-.9356zm.168 2.8477V24H6.455V4.7422zm5.0214 0V20.543h3.8418V4.7422zm4.957 0V15.291h3.8497V4.7422zm4.9356 0v6.4941h3.8418V4.7422z" fill="#ffffff"/></g><text x="25" y="15" fill="#010101" fill-opacity=".3" font-family="Verdana,DejaVu Sans,Geneva,sans-serif" font-size="11">pytest</text><text x="25" y="14" fill="#ffffff" font-family="Verdana,DejaVu Sans,Geneva,sans-serif" font-size="11">pytest</text></g><g transform="translate(615,0)"><rect width="73" height="20" rx="3" fill="#000000"/><g transform="translate(7,3.0) scale(0.5833)"><path d="M16.361 10.26a.894.894 0 0 0-.558.47l-.072.148.001.207c0 .193.004.217.059.353.076.193.152.312.291.448.24.238.51.3.872.205a.86.86 0 0 0 .517-.436.752.752 0 0 0 .08-.498c-.064-.453-.33-.782-.724-.897a1.06 1.06 0 0 0-.466 0zm-9.203.005c-.305.096-.533.32-.65.639a1.187 1.187 0 0 0-.06.52c.057.309.31.59.598.667.362.095.632.033.872-.205.14-.136.215-.255.291-.448.055-.136.059-.16.059-.353l.001-.207-.072-.148a.894.894 0 0 0-.565-.472 1.02 1.02 0 0 0-.474.007Zm4.184 2c-.131.071-.223.25-.195.383.031.143.157.288.353.407.105.063.112.072.117.136.004.038-.01.146-.029.243-.02.094-.036.194-.036.222.002.074.07.195.143.253.064.052.076.054.255.059.164.005.198.001.264-.03.169-.082.212-.234.15-.525-.052-.243-.042-.28.087-.355.137-.08.281-.219.324-.314a.365.365 0 0 0-.175-.48.394.394 0 0 0-.181-.033c-.126 0-.207.03-.355.124l-.085.053-.053-.032c-.219-.13-.259-.145-.391-.143a.396.396 0 0 0-.193.032zm.39-2.195c-.373.036-.475.05-.654.086-.291.06-.68.195-.951.328-.94.46-1.589 1.226-1.787 2.114-.04.176-.045.234-.045.53 0 .294.005.357.043.524.264 1.16 1.332 2.017 2.714 2.173.3.033 1.596.033 1.896 0 1.11-.125 2.064-.727 2.493-1.571.114-.226.169-.372.22-.602.039-.167.044-.23.044-.523 0-.297-.005-.355-.045-.531-.288-1.29-1.539-2.304-3.072-2.497a6.873 6.873 0 0 0-.855-.031zm.645.937a3.283 3.283 0 0 1 1.44.514c.223.148.537.458.671.662.166.251.26.508.303.82.02.143.01.251-.043.482-.08.345-.332.705-.672.957a3.115 3.115 0 0 1-.689.348c-.382.122-.632.144-1.525.138-.582-.006-.686-.01-.853-.042-.57-.107-1.022-.334-1.35-.68-.264-.28-.385-.535-.45-.946-.03-.192.025-.509.137-.776.136-.326.488-.73.836-.963.403-.269.934-.46 1.422-.512.187-.02.586-.02.773-.002zm-5.503-11a1.653 1.653 0 0 0-.683.298C5.617.74 5.173 1.666 4.985 2.819c-.07.436-.119 1.04-.119 1.503 0 .544.064 1.24.155 1.721.02.107.031.202.023.208a8.12 8.12 0 0 1-.187.152 5.324 5.324 0 0 0-.949 1.02 5.49 5.49 0 0 0-.94 2.339 6.625 6.625 0 0 0-.023 1.357c.091.78.325 1.438.727 2.04l.13.195-.037.064c-.269.452-.498 1.105-.605 1.732-.084.496-.095.629-.095 1.294 0 .67.009.803.088 1.266.095.555.288 1.143.503 1.534.071.128.243.393.264.407.007.003-.014.067-.046.141a7.405 7.405 0 0 0-.548 1.873c-.062.417-.071.552-.071.991 0 .56.031.832.148 1.279L3.42 24h1.478l-.05-.091c-.297-.552-.325-1.575-.068-2.597.117-.472.25-.819.498-1.296l.148-.29v-.177c0-.165-.003-.184-.057-.293a.915.915 0 0 0-.194-.25 1.74 1.74 0 0 1-.385-.543c-.424-.92-.506-2.286-.208-3.451.124-.486.329-.918.544-1.154a.787.787 0 0 0 .223-.531c0-.195-.07-.355-.224-.522a3.136 3.136 0 0 1-.817-1.729c-.14-.96.114-2.005.69-2.834.563-.814 1.353-1.336 2.237-1.475.199-.033.57-.028.776.01.226.04.367.028.512-.041.179-.085.268-.19.374-.431.093-.215.165-.333.36-.576.234-.29.46-.489.822-.729.413-.27.884-.467 1.352-.561.17-.035.25-.04.569-.04.319 0 .398.005.569.04a4.07 4.07 0 0 1 1.914.997c.117.109.398.457.488.602.034.057.095.177.132.267.105.241.195.346.374.43.14.068.286.082.503.045.343-.058.607-.053.943.016 1.144.23 2.14 1.173 2.581 2.437.385 1.108.276 2.267-.296 3.153-.097.15-.193.27-.333.419-.301.322-.301.722-.001 1.053.493.539.801 1.866.708 3.036-.062.772-.26 1.463-.533 1.854a2.096 2.096 0 0 1-.224.258.916.916 0 0 0-.194.25c-.054.109-.057.128-.057.293v.178l.148.29c.248.476.38.823.498 1.295.253 1.008.231 2.01-.059 2.581a.845.845 0 0 0-.044.098c0 .006.329.009.732.009h.73l.02-.074.036-.134c.019-.076.057-.3.088-.516.029-.217.029-1.016 0-1.258-.11-.875-.295-1.57-.597-2.226-.032-.074-.053-.138-.046-.141.008-.005.057-.074.108-.152.376-.569.607-1.284.724-2.228.031-.26.031-1.378 0-1.628-.083-.645-.182-1.082-.348-1.525a6.083 6.083 0 0 0-.329-.7l-.038-.064.131-.194c.402-.604.636-1.262.727-2.04a6.625 6.625 0 0 0-.024-1.358 5.512 5.512 0 0 0-.939-2.339 5.325 5.325 0 0 0-.95-1.02 8.097 8.097 0 0 1-.186-.152.692.692 0 0 1 .023-.208c.208-1.087.201-2.443-.017-3.503-.19-.924-.535-1.658-.98-2.082-.354-.338-.716-.482-1.15-.455-.996.059-1.8 1.205-2.116 3.01a6.805 6.805 0 0 0-.097.726c0 .036-.007.066-.015.066a.96.96 0 0 1-.149-.078A4.857 4.857 0 0 0 12 3.03c-.832 0-1.687.243-2.456.698a.958.958 0 0 1-.148.078c-.008 0-.015-.03-.015-.066a6.71 6.71 0 0 0-.097-.725C8.997 1.392 8.337.319 7.46.048a2.096 2.096 0 0 0-.585-.041Zm.293 1.402c.248.197.523.759.682 1.388.03.113.06.244.069.292.007.047.026.152.041.233.067.365.098.76.102 1.24l.002.475-.12.175-.118.178h-.278c-.324 0-.646.041-.954.124l-.238.06c-.033.007-.038-.003-.057-.144a8.438 8.438 0 0 1 .016-2.323c.124-.788.413-1.501.696-1.711.067-.05.079-.049.157.013zm9.825-.012c.17.126.358.46.498.888.28.854.36 2.028.212 3.145-.019.14-.024.151-.057.144l-.238-.06a3.693 3.693 0 0 0-.954-.124h-.278l-.119-.178-.119-.175.002-.474c.004-.669.066-1.19.214-1.772.157-.623.434-1.185.68-1.382.078-.062.09-.063.159-.012z" fill="#ffffff"/></g><text x="25" y="15" fill="#010101" fill-opacity=".3" font-family="Verdana,DejaVu Sans,Geneva,sans-serif" font-size="11">Ollama</text><text x="25" y="14" fill="#ffffff" font-family="Verdana,DejaVu Sans,Geneva,sans-serif" font-size="11">Ollama</text></g></svg>